<?xml version="1.0" encoding="utf-8"?>
<!-- Generator: Adobe Illustrator 22.0.1, SVG Export Plug-In . SVG Version: 6.00 Build 0)  -->
<svg version="1.1" id="Layer_1" xmlns="http://www.w3.org/2000/svg" xmlns:xlink="http://www.w3.org/1999/xlink" x="0px" y="0px"
	 viewBox="0 0 82.5 60.6" style="enable-background:new 0 0 82.5 60.6;" xml:space="preserve">
<style type="text/css">
	.st0{fill:#6E2A16;}
</style>
<text transform="matrix(1 0 0 1 3.9805 474.6406)" style="font-family:'EthnocentricRg-Regular'; font-size:78px;">CLICKMERCE</text>
<path class="st0" d="M75.3,43L64.9,56.4H38.7c-4.5,0-8.7-0.7-12.6-2c-3.8-1.4-7.2-3.2-9.9-5.6c-2.8-2.4-5-5.2-6.6-8.4
	C8,37.1,7.3,33.6,7.3,29.8S8,22.5,9.6,19.4c1.6-3.1,3.8-5.9,6.6-8.1C19,9,22.3,7.2,26.1,6c3.8-1.2,8-1.8,12.6-1.8h36.6L64.9,17.8
	H38.7c-2.2,0-4.2,0.3-6.1,0.9c-1.9,0.6-3.5,1.5-4.8,2.6c-1.4,1.1-2.4,2.5-3.2,4c-0.8,1.6-1.2,3.3-1.2,5.1c0,1.9,0.4,3.6,1.1,5.1
	c0.8,1.5,1.8,2.8,3.2,3.9c1.4,1.1,3,1.9,4.9,2.5c1.9,0.6,3.9,0.9,6.1,0.9H75.3z"/>
</svg>
