<?xml version="1.0" encoding="utf-8"?>
<!-- Generator: Adobe Illustrator 22.0.1, SVG Export Plug-In . SVG Version: 6.00 Build 0)  -->
<svg version="1.1" id="Layer_1" xmlns="http://www.w3.org/2000/svg" xmlns:xlink="http://www.w3.org/1999/xlink" x="0px" y="0px"
	 viewBox="0 0 691.9 60.6" style="enable-background:new 0 0 691.9 60.6;" xml:space="preserve">
<style type="text/css">
	.st0{fill:#6E2A16;}
	.st1{fill:#70491C;}
</style>
<text transform="matrix(1 0 0 1 3.9805 474.6406)" style="font-family:'EthnocentricRg-Regular'; font-size:78px;">CLICKMERCE</text>
<g>
	<path class="st0" d="M73.9,43L63.6,56.4H37.4c-4.5,0-8.7-0.7-12.6-2c-3.8-1.4-7.2-3.2-9.9-5.6c-2.8-2.4-5-5.2-6.6-8.4
		c-1.6-3.2-2.4-6.8-2.4-10.6s0.8-7.3,2.4-10.4c1.6-3.1,3.8-5.9,6.6-8.1C17.6,9,21,7.2,24.8,6c3.8-1.2,8-1.8,12.6-1.8h36.6L63.6,17.8
		H37.4c-2.2,0-4.2,0.3-6.1,0.9c-1.9,0.6-3.5,1.5-4.8,2.6c-1.4,1.1-2.4,2.5-3.2,4c-0.8,1.6-1.2,3.3-1.2,5.1c0,1.9,0.4,3.6,1.1,5.1
		c0.8,1.5,1.8,2.8,3.2,3.9c1.4,1.1,3,1.9,4.9,2.5c1.9,0.6,3.9,0.9,6.1,0.9H73.9z"/>
	<path class="st0" d="M136.1,43l-10.5,13.4H79.6V4.2h16.1V43H136.1z"/>
	<path class="st0" d="M157.9,56.4h-16.1V4.2h16.1V56.4z"/>
	<path class="st0" d="M234.3,43l-10.4,13.4h-26.2c-4.5,0-8.7-0.7-12.6-2c-3.8-1.4-7.2-3.2-9.9-5.6c-2.8-2.4-5-5.2-6.6-8.4
		c-1.6-3.2-2.4-6.8-2.4-10.6s0.8-7.3,2.4-10.4c1.6-3.1,3.8-5.9,6.6-8.1c2.8-2.3,6.1-4,9.9-5.2c3.8-1.2,8-1.8,12.6-1.8h36.6
		l-10.4,13.6h-26.2c-2.2,0-4.2,0.3-6.1,0.9s-3.5,1.5-4.8,2.6c-1.4,1.1-2.4,2.5-3.2,4c-0.8,1.6-1.2,3.3-1.2,5.1
		c0,1.9,0.4,3.6,1.1,5.1c0.8,1.5,1.8,2.8,3.2,3.9c1.4,1.1,3,1.9,4.9,2.5c1.9,0.6,3.9,0.9,6.1,0.9H234.3z"/>
	<path class="st0" d="M280.5,4.2l-15.1,12.7c-2.4,2-4.3,3.7-5.8,5s-2.7,2.5-3.8,3.5c0.1-1.4,0.2-2.8,0.2-4.4
		c0.1-1.6,0.1-3.1,0.1-4.8V4.2h-16.2v52.2h16.2v-15l0,0c0,0,18.6-15.5,19.7-16.2c1-0.7,2.2-1.6,3.5-2.6c1.3-1,2.8-2.1,4.6-3.4l20-15
		H280.5z"/>
	<path class="st1" d="M276.9,31.8c-11.9,9.9,0,0-11.9,9.7l16.4,14.8h24.4L276.9,31.8z"/>
	<path class="st0" d="M347.1,23.6c1.1,2,2.1,3.8,3,5.3c0.9,1.5,1.6,2.9,2.3,4.1c0.6,1.2,1.2,2.3,1.7,3.3c0.5,1,1,2,1.4,2.9
		c0.4-0.9,0.9-1.9,1.4-2.8c0.5-1,1.1-2.1,1.7-3.3c0.6-1.2,1.4-2.6,2.3-4.1c0.9-1.5,1.9-3.3,3-5.3l8.3-14.8c0.9-1.7,2.1-3,3.5-4
		c1.4-1,3.2-1.5,5.3-1.5c2,0,3.9,0.6,5.5,1.8s2.8,3,3.5,5.4l13.2,45.9h-16.1l-4.9-18.2c-0.8-3-1.5-5.6-2.1-7.8
		c-0.6-2.2-1.1-4.4-1.5-6.6c-0.9,1.8-1.9,3.8-3,6c-1.1,2.2-2.5,5-4.3,8.4l-7,13.1c-0.7,1.3-1.4,2.3-2.1,3.1
		c-0.7,0.8-1.4,1.3-2.1,1.8c-0.7,0.4-1.5,0.7-2.3,0.8c-0.8,0.1-1.7,0.2-2.7,0.2c-1,0-1.9-0.1-2.7-0.2c-0.8-0.1-1.6-0.4-2.3-0.8
		c-0.7-0.4-1.4-1-2.1-1.8c-0.7-0.8-1.4-1.8-2.1-3.1l-7-13.2c-0.9-1.8-1.8-3.4-2.5-4.8c-0.7-1.4-1.4-2.7-2-3.8
		c-0.6-1.1-1.1-2.1-1.6-3.1c-0.4-0.9-0.9-1.8-1.3-2.7c-0.4,2.1-0.9,4.3-1.5,6.5c-0.6,2.3-1.2,4.9-2,7.8l-4.9,18.2h-15.8l13.5-45.9
		c0.7-2.4,1.9-4.3,3.6-5.4c1.7-1.2,3.5-1.8,5.5-1.8c2.1,0,3.8,0.5,5.3,1.5c1.4,1,2.6,2.3,3.5,4.1L347.1,23.6z"/>
	<path class="st0" d="M409.3,17.8V4.2h60.5l-10.5,13.6h-33.8 M409.3,43h60.6l-10.4,13.4h-50.2 M409.3,24h57.6l-9.3,11.9h-48.3"/>
	<path class="st0" d="M625.3,17.8V4.2h60.5l-10.5,13.6h-33.8 M625.3,43h60.6l-10.4,13.4h-50.2 M625.3,24h57.6l-9.3,11.9h-48.3"/>
	<path class="st0" d="M549.4,56.4h-21.6l-11.6-13.8h-24.8v13.8h-16.1V29.7h45.4c2.5,0,4.6-0.5,6.3-1.6c1.7-1,2.6-2.5,2.6-4.3
		c0-2-0.8-3.5-2.3-4.6s-3.7-1.5-6.6-1.5h-45.4l10.5-13.6h33.5c3,0,6,0.3,9.2,0.8c3.2,0.5,6.1,1.5,8.7,2.9c2.6,1.4,4.7,3.3,6.4,5.7
		c1.7,2.4,2.5,5.5,2.5,9.2c0,2-0.3,4-0.9,5.8s-1.5,3.5-2.7,4.9s-2.6,2.7-4.3,3.7c-1.7,1-3.6,1.7-5.7,2.1c0.9,0.7,1.9,1.5,3,2.6
		c1.1,1,2.5,2.5,4.4,4.3L549.4,56.4z"/>
	<path class="st0" d="M619.7,43l-10.4,13.4h-26.2c-4.5,0-8.7-0.7-12.6-2c-3.8-1.4-7.2-3.2-9.9-5.6c-2.8-2.4-5-5.2-6.6-8.4
		c-1.6-3.2-2.4-6.8-2.4-10.6s0.8-7.3,2.4-10.4c1.6-3.1,3.8-5.9,6.6-8.1c2.8-2.3,6.1-4,9.9-5.2c3.8-1.2,8-1.8,12.6-1.8h36.6
		l-10.4,13.6h-26.2c-2.2,0-4.2,0.3-6.1,0.9s-3.5,1.5-4.8,2.6c-1.4,1.1-2.4,2.5-3.2,4s-1.2,3.3-1.2,5.1c0,1.9,0.4,3.6,1.1,5.1
		c0.8,1.5,1.8,2.8,3.2,3.9c1.4,1.1,3,1.9,4.9,2.5c1.9,0.6,3.9,0.9,6.1,0.9H619.7z"/>
	<path class="st0" d="M275.8,25.2"/>
</g>
</svg>
